<svg xmlns="http://www.w3.org/2000/svg" xmlns:svg="http://www.w3.org/2000/svg" id="svg12" width="49.534" height="49.536" version="1.1" viewBox="0 0 13.106 13.106" xml:space="preserve"><g id="layer1" transform="translate(-1.9134959,-1.9134959)" style="display:none"><rect style="fill:#fff;fill-opacity:1;stroke:#fff;stroke-width:0;stroke-dasharray:none" id="rect340" width="9.268" height="9.268" x="7.34" y="-4.634" transform="rotate(45.000002)"/></g><g id="layer2" style="display:inline" transform="translate(-1.9134959,-1.9134959)"><g id="g279" transform="translate(8.9718865,1.891405)" style="display:none"><rect style="display:inline;fill:#fff;fill-opacity:1;stroke:#fff;stroke-width:0;stroke-dasharray:none" id="rect342-6-9" width="1.445" height="7.091" x="-5.73" y=".745" transform="matrix(0.70693624,-0.70727728,0.70727469,0.70693883,0,0)"/><rect style="display:inline;fill:#fff;fill-opacity:1;stroke:#fff;stroke-width:0;stroke-dasharray:none" id="rect342-35-2-3" width="1.445" height="7.091" x="3.568" y="1.462" transform="matrix(0.70727728,0.70693624,-0.70693883,0.70727469,0,0)"/><rect style="display:inline;fill:#fff;fill-opacity:1;stroke:#fff;stroke-width:0;stroke-dasharray:none" id="rect368-9-1" width="1.017" height="1.017" x="1.493" y="8.576"/><rect style="display:inline;fill:#fff;fill-opacity:1;stroke:#fff;stroke-width:0;stroke-dasharray:none" id="rect368-6-1-9" width="1.02" height="1.013" x="-3.523" y="8.579"/><rect style="display:inline;fill:#fff;fill-opacity:1;stroke:#fff;stroke-width:0;stroke-dasharray:none" id="rect368-6-7-2-4" width="1.022" height="1.022" x="-3.523" y="3.56"/><rect style="display:inline;fill:#fff;fill-opacity:1;stroke:#fff;stroke-width:0;stroke-dasharray:none" id="rect368-6-7-5-7-7" width="1.019" height="1.02" x="1.492" y="3.559"/></g><g id="g308" transform="translate(5.4497178,5.4466674)" style="display:inline"><g id="layer1-6" style="display:none" transform="translate(-5.448814,-5.4475709)"><rect style="display:inline;fill:#f38ba8;fill-opacity:1;stroke:#fff;stroke-width:0;stroke-dasharray:none" id="rect340-0" width="9.268" height="9.268" x="7.34" y="-4.634" transform="rotate(45.000002)"/><rect style="display:none;fill:#000;fill-opacity:0;stroke:#fff;stroke-width:1.00531;stroke-dasharray:none" id="rect2540" width="5.028" height="5.028" x="5.951" y="5.951"/></g><g id="layer2-6" style="display:none" transform="translate(-5.448814,-5.4475709)"><rect style="display:inline;fill:#747474;fill-opacity:1;stroke:#fff;stroke-width:0;stroke-dasharray:none" id="rect342-2" width="1.445" height="7.091" x="-.723" y="8.427" transform="matrix(0.70693624,-0.70727728,0.70727469,0.70693883,0,0)"/><rect style="display:inline;fill:#747474;fill-opacity:1;stroke:#fff;stroke-width:0;stroke-dasharray:none" id="rect342-35-6" width="1.445" height="7.091" x="11.249" y="-3.545" transform="matrix(0.70727728,0.70693624,-0.70693883,0.70727469,0,0)"/><rect style="display:inline;fill:#747474;fill-opacity:1;stroke:#fff;stroke-width:0;stroke-dasharray:none" id="rect368-1" width="1.017" height="1.017" x="10.464" y="10.465"/><rect style="fill:#747474;fill-opacity:1;stroke:#fff;stroke-width:0;stroke-dasharray:none" id="rect368-6-8" width="1.02" height="1.013" x="5.449" y="10.468"/><rect style="fill:#747474;fill-opacity:1;stroke:#fff;stroke-width:0;stroke-dasharray:none" id="rect368-6-7-7" width="1.022" height="1.022" x="5.449" y="5.449"/><rect style="fill:#747474;fill-opacity:1;stroke:#fff;stroke-width:0;stroke-dasharray:none" id="rect368-6-7-5-9" width="1.019" height="1.02" x="10.464" y="5.448"/></g><path style="display:inline;fill:#fff;fill-opacity:1;stroke:#000;stroke-width:0;stroke-linecap:butt;stroke-linejoin:miter;stroke-dasharray:none;stroke-opacity:1" id="path2923" d="M 4.774872e-7,6.0338101 C 5.015646,6.0342071 5.015646,6.0342071 5.015646,6.0342071 L 4.774872e-7,1.0234747 Z"/><path style="display:inline;fill:#fff;fill-opacity:1;stroke:#000;stroke-width:0;stroke-linecap:butt;stroke-linejoin:miter;stroke-dasharray:none;stroke-opacity:1" id="path2923-6" d="M 6.037465,3.9779198e-4 C 1.0218196,7.919831e-7 1.0218196,7.919831e-7 1.0218196,7.919831e-7 L 6.037465,5.0107331 Z"/></g><g id="g327" transform="translate(5.4479604,7.9680456)" style="display:none"><g id="layer1-3" style="display:inline" transform="translate(-5.44796,-7.9666664)"><rect style="display:none;fill:#f38ba8;fill-opacity:1;stroke:#fff;stroke-width:0;stroke-dasharray:none" id="rect340-7" width="9.268" height="9.268" x="7.34" y="-4.634" transform="rotate(45.000002)"/><rect style="display:none;fill:#000;fill-opacity:0;stroke:#fff;stroke-width:1.00531;stroke-dasharray:none" id="rect2540-5" width="5.028" height="5.028" x="5.951" y="5.951"/></g><g id="layer2-9" style="display:none" transform="translate(-5.44796,-7.9666664)"><rect style="display:inline;fill:#747474;fill-opacity:1;stroke:#fff;stroke-width:0;stroke-dasharray:none" id="rect342-22" width="1.445" height="7.091" x="-.723" y="8.427" transform="matrix(0.70693624,-0.70727728,0.70727469,0.70693883,0,0)"/><rect style="display:inline;fill:#747474;fill-opacity:1;stroke:#fff;stroke-width:0;stroke-dasharray:none" id="rect342-35-8" width="1.445" height="7.091" x="11.249" y="-3.545" transform="matrix(0.70727728,0.70693624,-0.70693883,0.70727469,0,0)"/></g><rect style="fill:#fff;fill-opacity:1;stroke:#fff;stroke-width:0;stroke-dasharray:none" id="rect3135" width="6.037" height="1" x="0" y="0"/></g></g></svg>